<svg width="640" height="150" viewBox="0 0 420 100" xmlns="http://www.w3.org/2000/svg" role="img">
<title>ZamesGG</title>
<desc>Горизонтальный логотип: эмблема со скрещёнными клинками и текст ZamesGG</desc>
<defs>
<linearGradient id="bg2" x1="0" y1="0" x2="1" y2="1">
<stop offset="0" stop-color="#161b22"/>
<stop offset="1" stop-color="#0d1117"/>
</linearGradient>
<linearGradient id="blade2" x1="0" y1="0" x2="1" y2="0">
<stop offset="0" stop-color="#e9c979"/>
<stop offset="0.55" stop-color="#c89b3c"/>
<stop offset="1" stop-color="#8f6c26"/>
</linearGradient>
<linearGradient id="gg" x1="0" y1="0" x2="1" y2="0">
<stop offset="0" stop-color="#e9c979"/>
<stop offset="1" stop-color="#c89b3c"/>
</linearGradient>
</defs>
<rect x="4" y="4" width="92" height="92" rx="20" fill="url(#bg2)" stroke="#c89b3c" stroke-width="2.5"/>
<g transform="translate(50,50) rotate(-45)">
<rect x="-16" y="-2" width="20" height="4" rx="1" fill="#c89b3c"/>
<circle cx="-18" cy="0" r="3.5" fill="#c89b3c"/>
<rect x="3" y="-8" width="5" height="16" rx="1" fill="#8f6c26"/>
<polygon points="40,0 8,-3.5 8,3.5" fill="url(#blade2)" stroke="#8f6c26" stroke-width="0.6"/>
</g>
<g transform="translate(50,50) rotate(-135)">
<rect x="-16" y="-2" width="20" height="4" rx="1" fill="#c89b3c"/>
<circle cx="-18" cy="0" r="3.5" fill="#c89b3c"/>
<rect x="3" y="-8" width="5" height="16" rx="1" fill="#8f6c26"/>
<polygon points="40,0 8,-3.5 8,3.5" fill="url(#blade2)" stroke="#8f6c26" stroke-width="0.6"/>
</g>
<polygon points="50,45 54,50 50,55 46,50" fill="#e5534b"/>
<text x="118" y="63" font-family="Arial, Helvetica, sans-serif" font-size="44" font-weight="700" fill="#e6edf3">Zames<tspan fill="url(#gg)">GG</tspan></text>
</svg>
